<?xml version="1.0" encoding="iso-8859-1"?>
<!-- Generator: Adobe Illustrator 19.0.0, SVG Export Plug-In . SVG Version: 6.00 Build 0)  -->
<svg xmlns="http://www.w3.org/2000/svg" xmlns:xlink="http://www.w3.org/1999/xlink" version="1.1" id="Layer_1" x="0px" y="0px" viewBox="0 0 300 300" style="enable-background:new 0 0 300 300;" xml:space="preserve" width="512px" height="512px">
<g>
	<g>
		<g>
			<path d="M285.189,68.337c-1.916-15.223-13.95-27.305-29.148-29.303c-1.495-8.874-7.282-16.616-15.639-20.41     C213.213,6.266,184.292,0,154.437,0h-8.874c-29.855,0-58.776,6.266-85.965,18.624c-8.356,3.798-14.144,11.535-15.639,20.41     c-15.198,1.998-27.232,14.081-29.148,29.303C6.334,70.394,0,77.995,0,87.097v24.194c0,8.99,6.194,16.505,14.516,18.668v116.816     c0,19.703,14.806,35.981,33.871,38.376V300h38.71v-14.516h125.806V300h38.71v-14.85c19.064-2.395,33.871-18.673,33.871-38.376     V129.958c8.323-2.163,14.516-9.677,14.516-18.668V87.097C300,77.995,293.666,70.394,285.189,68.337z M14.516,119.671     c-2.889-1.679-4.839-4.805-4.839-8.381V87.097c0-3.576,1.95-6.702,4.839-8.376V119.671z M63.605,27.431     c25.916-11.782,53.492-17.753,81.958-17.753h8.874c28.466,0,56.042,5.971,81.958,17.753c4.79,2.177,8.279,6.358,9.687,11.279     h-10.698c-0.789-1.031-1.776-1.911-3-2.468c-24.644-11.206-50.874-16.887-77.947-16.887h-8.874     c-27.077,0-53.303,5.681-77.947,16.887c-1.229,0.552-2.216,1.437-3.005,2.468H53.913C55.321,33.789,58.81,29.608,63.605,27.431z      M212.356,38.71H87.639c18.615-6.402,38.023-9.677,57.924-9.677h8.874C174.334,29.032,193.742,32.308,212.356,38.71z      M77.42,290.323L77.42,290.323H58.065v-4.839H77.42V290.323z M241.935,290.323H222.58v-4.839h19.355V290.323z M275.807,246.774     L275.807,246.774c-0.001,16.011-13.022,29.032-29.033,29.032h-33.871H87.097H53.226c-16.011,0-29.032-13.021-29.032-29.032     V101.613h251.613V246.774z M275.807,91.936H24.194V72.581c0-13.341,10.853-24.194,24.193-24.194h203.226     c13.34,0,24.194,10.853,24.194,24.194V91.936z M290.323,111.29c0,3.576-1.95,6.702-4.839,8.376v-40.95     c2.889,1.674,4.839,4.805,4.839,8.376V111.29z" fill="#ffa800"/>
			<path d="M124.064,256.451h51.871c6.895,0,12.885-4.906,14.235-11.671c5.453-27.252,8.216-55.166,8.216-82.969V150     c0.001-8.003-6.512-14.516-14.515-14.516h-67.742c-8.003,0-14.516,6.513-14.516,14.516v11.811     c0,27.803,2.763,55.718,8.216,82.969C111.179,251.545,117.164,256.451,124.064,256.451z M180.682,242.884     c-0.45,2.255-2.448,3.89-4.747,3.89h-51.871c-2.298,0-4.297-1.635-4.747-3.89c-3.885-19.423-6.334-39.194-7.398-59.013h76.161     C187.016,203.69,184.568,223.456,180.682,242.884z M116.129,145.161h67.742c2.666,0,4.839,2.173,4.839,4.839v11.811     c0,4.123-0.184,8.255-0.305,12.382h-76.81c-0.121-4.127-0.305-8.255-0.305-12.382V150h0     C111.29,147.334,113.463,145.161,116.129,145.161z" fill="#ffa800"/>
			<path d="M140.322,237.096h19.355c5.337,0,9.677-4.34,9.677-9.677v-24.194c0.001-5.336-4.339-9.677-9.677-9.677h-19.355     c-5.337,0-9.677,4.34-9.677,9.677v24.194C130.645,232.756,134.985,237.096,140.322,237.096z M159.678,227.419h-19.355v-4.839     h19.355V227.419z M140.322,203.226h19.355l0.005,9.677h-19.36V203.226z" fill="#ffa800"/>
			<rect x="120.968" y="154.839" width="19.355" height="9.677" fill="#ffa800"/>
			<rect x="159.677" y="154.839" width="19.355" height="9.677" fill="#ffa800"/>
		</g>
	</g>
</g>
<g>
</g>
<g>
</g>
<g>
</g>
<g>
</g>
<g>
</g>
<g>
</g>
<g>
</g>
<g>
</g>
<g>
</g>
<g>
</g>
<g>
</g>
<g>
</g>
<g>
</g>
<g>
</g>
<g>
</g>
</svg>
