<svg version="1.1" focusable="false" xmlns="http://www.w3.org/2000/svg" x="0" y="0" width="180" height="62" viewBox="0 0 180 62" enable-background="new 0 0 180 62" xml:space="preserve"><path fill="none" d="M1 1h180v59.5H1V1z"/><path fill-rule="evenodd" clip-rule="evenodd" fill="#FB9800" d="M22.3 5.9c0.1 0.5 0.1 0.5-0.4 0.6 -1.3 0.2-2.6 0.4-3.9 0.6 -0.2 0-0.3 0.2-0.3 0.4 0 0.1 0 0.2 0 0.3 0 13 0 26 0 39 0 0.1 0 0.2 0 0.3 0 0.3 0.1 0.4 0.3 0.5 0.9 0.2 1.9 0.3 2.8 0.5 0.4 0.1 0.8 0.1 1.3 0.1 0.3 0 0.3 0.2 0.3 0.4 0 0.2-0.2 0.2-0.3 0.2 -1.7-0.1-3.5-0.3-5.2-0.8 -1.4-0.4-2.8-1-4.1-1.7 -1.9-1-3.7-2.3-5.2-3.9 -2.5-2.6-4.3-5.5-5.3-9 -0.5-1.8-0.8-3.7-0.8-5.5 -0.1-2.9 0.4-5.6 1.4-8.3 1.3-3.3 3.2-6 5.9-8.3 2.6-2.3 5.6-3.8 8.9-4.6C19.1 6.2 20.7 5.9 22.3 5.9zM17 47.4c0-0.3 0-0.5 0-0.6 0-12.9 0-25.9 0-38.8 0-0.1 0-0.1 0-0.2 0-0.3-0.1-0.4-0.4-0.3 -1.4 0.4-2.7 1-4 1.7 -0.3 0.2-0.4 0.3-0.4 0.7 0 3.9 0 7.9 0 11.8 0 7.7 0 15.4 0 23.1 0 0.3 0.1 0.5 0.4 0.7 0.6 0.3 1.1 0.6 1.7 0.8C15.1 46.7 16 47 17 47.4zM11.5 44.8c0-11.7 0-23.3 0-34.9 -0.1 0-0.1 0-0.1 0 -1.6 1-2.9 2.2-4.2 3.6 -0.4 0.4-0.5 0.9-0.5 1.4 0 6.6 0 13.2 0 19.7 0 1.8 0 3.6 0 5.4 0 0.2 0.1 0.5 0.2 0.6 0.9 1.2 2 2.1 3.2 3C10.5 44.1 11 44.4 11.5 44.8zM6 39.6c0 0 0.1 0 0.1 0 0-8.2 0-16.4 0-24.6 -1.8 2.3-4.6 7.2-4 14.2C2.4 33 3.7 36.5 6 39.6zM44.3 26.9c-0.8-0.6-1.6-1-2.3-1.5 -1.9-1.3-3.7-2.5-5.6-3.7 -0.2-0.1-0.3-0.3-0.2-0.5 0.2-0.9 0.4-1.7 0.6-2.6 0-0.2 0.1-0.3 0.3-0.3 1.3 0.1 2.5 0.2 3.8 0.3 0.4 0 0.8 0.1 1.3 0.1 0.2 0 0.3 0.1 0.4 0.3 0.7 1.6 1.2 3.4 1.5 5.1C44.1 24.9 44.2 25.8 44.3 26.9zM23.2 47.3c0-5 0-9.9 0-15 0.4 0.4 0.7 0.8 1 1.1 0.9 1 1.7 1.9 2.6 2.9 0.2 0.2 0.2 0.3 0.1 0.6 -0.8 2.2-1.6 4.3-2.3 6.5 -0.4 1.2-0.9 2.4-1.3 3.6C23.3 47.1 23.2 47.2 23.2 47.3zM41.5 37.8c-2 3.5-4.7 6.3-8.3 8.3 -0.1-0.4-0.1-0.8-0.2-1.2 -0.2-1-0.3-2-0.4-2.9 0-0.1 0.1-0.3 0.1-0.3 2.9-1.3 5.8-2.6 8.7-3.9C41.4 37.7 41.5 37.8 41.5 37.8zM32.5 40.4c0-2.4 0-4.7 0-7 2.4 0.3 4.8 0.7 7.2 1C37.3 36.4 35 38.3 32.5 40.4zM24.4 32.2c1.8 0.3 3.5 0.5 5.2 0.8 0.6 0.1 1.1 0.2 1.7 0.2 0.2 0 0.3 0.1 0.3 0.3 0 2.2 0 4.4 0 6.5 0 0 0 0 0 0.1C29.1 37.5 26.8 34.9 24.4 32.2zM23.2 21.9c1.7 2.1 3.3 4.2 4.9 6.4 -1.6 0.8-3.3 1.7-4.9 2.5C23.2 27.8 23.2 24.9 23.2 21.9zM23.9 48.7c2.6-2.2 5.1-4.3 7.7-6.4 0 0.2 0.1 0.3 0.1 0.5 0.2 1.1 0.3 2.3 0.5 3.4 0 0.2 0 0.3-0.2 0.4 -1.9 0.9-3.9 1.5-6 1.9C25.4 48.6 24.7 48.7 23.9 48.7zM31.3 41.4c-0.8 0.7-1.6 1.3-2.3 1.9 -0.4 0.3-0.8 0.7-1.2 1 -0.2 0.2-0.3 0.2-0.5 0 -0.4-0.5-0.8-1-1.2-1.5 -0.1-0.1-0.1-0.3-0.1-0.4 0.6-1.6 1.2-3.3 1.8-5C29 38.7 30.1 40 31.3 41.4zM36.1 31.3c1.1-1.3 2.1-2.6 3.2-3.9 0.9 2.2 1.8 4.4 2.7 6.7C40 33.1 38.1 32.2 36.1 31.3zM35.2 17.3c-2.6 0.1-5.1 0.3-7.8 0.4 1.3-1.4 2.5-2.7 3.7-4.1C32.5 14.9 33.8 16 35.2 17.3zM29.9 22.3c-0.4 1.7-0.8 3.4-1.3 5.1 -1.5-1.9-2.9-3.8-4.4-5.7C26.1 21.9 28 22.1 29.9 22.3zM31.2 12.2c-1-1.9-2-3.7-3-5.6 2.3 0.6 4.3 1.5 6.2 2.7C33.3 10.3 32.3 11.2 31.2 12.2zM40.2 27.1c1.4 0.3 2.7 0.5 4 0.8 0 2.2-0.4 4.2-1.1 6.4C42.1 31.9 41.2 29.5 40.2 27.1zM30.2 12.3c-2.1-0.5-4.1-0.9-6.1-1.4 1.1-1.3 2.3-2.5 3.4-3.7C28.4 8.9 29.2 10.5 30.2 12.3zM28.9 21.2c-0.6-0.1-1.1-0.1-1.7-0.2 -1-0.1-2-0.2-3-0.3 -0.2 0-0.4-0.1-0.5-0.1 -0.6 0-0.5-0.1-0.5-0.5 0-1.3 0-2.6 0-3.9 0-0.1 0-0.2 0-0.3C25.1 17.7 27 19.4 28.9 21.2zM34.4 23.9c-0.8-1.8-1.6-3.6-2.4-5.4 0.5 0 1-0.1 1.5-0.1 0.7 0 1.3-0.1 2-0.1 0.2 0 0.3 0 0.3 0.3 -0.4 1.7-0.8 3.4-1.2 5.1 0 0.1 0 0.1-0.1 0.2C34.5 23.9 34.5 23.9 34.4 23.9zM34.3 26.2c0.2 1.5 0.4 3 0.6 4.5 -1.6-0.8-3.2-1.5-4.9-2.3C31.4 27.7 32.8 27 34.3 26.2zM42 26.5c-2.2-0.4-4.2-0.8-6.3-1.3 -0.1 0-0.2 0-0.3-0.1 -0.1 0-0.2-0.1-0.2-0.2 0.2-0.9 0.4-1.7 0.6-2.6C37.9 23.8 39.9 25.1 42 26.5zM34.5 10.5c0.4 2 0.8 3.9 1.1 5.8 0 0 0 0-0.1 0.1 -1.2-1.1-2.5-2.2-3.8-3.3C32.7 12.1 33.6 11.3 34.5 10.5zM31 32.2c-2.2-0.3-4.3-0.6-6.5-0.9 0.2-0.1 0.3-0.2 0.3-0.2 1.2-0.6 2.4-1.2 3.6-1.8 0.1-0.1 0.3-0.1 0.4 0C29.5 30.2 30.2 31.1 31 32.2zM33.8 25.4c-1.4 0.7-2.8 1.4-4.3 2.2 0.4-1.7 0.8-3.2 1.2-4.8C31.8 23.6 32.8 24.5 33.8 25.4zM27 6.3c-1.3 1.4-2.5 2.7-3.7 4.1 0-0.1 0-0.2 0-0.3 0-1.3 0-2.6 0-3.9 0-0.2 0-0.4 0.3-0.3 1.1 0.1 2.2 0.2 3.3 0.4C26.8 6.2 26.8 6.3 27 6.3zM23.2 11.7c1.2 0.3 2.3 0.5 3.4 0.8 -0.1 0.7-0.2 1.4-0.3 2 0 0.1-0.2 0.2-0.3 0.2 -0.9 0-1.7 0-2.6 0 -0.1 0-0.3-0.1-0.3-0.2C23.2 13.6 23.2 12.6 23.2 11.7zM20.1 4.1c0.9-0.9 1.8-1.8 2.6-2.6 0.9 0.9 1.8 1.8 2.7 2.7C23.6 4.1 21.9 4.1 20.1 4.1zM40.6 34.8c0.2 0.7 0.5 1.2 0.7 1.9 -2.1 0.9-4.2 1.9-6.3 2.8 0 0 0 0 0 0C36.9 38 38.7 36.4 40.6 34.8zM35.7 30.3c-0.2-1.4-0.3-2.8-0.5-4.2 1.1 0.2 2.2 0.4 3.4 0.7C37.6 28 36.7 29.1 35.7 30.3zM30.4 29.7c2.4 1.1 4.8 2.2 7.2 3.4 0 0 0 0 0 0 -1-0.1-2.1-0.3-3.1-0.4 -0.6-0.1-1.3-0.2-1.9-0.3 -0.2 0-0.4-0.1-0.5-0.3 -0.6-0.8-1.2-1.6-1.8-2.4C30.4 29.7 30.4 29.7 30.4 29.7zM22.8 53.3c-0.8 0-1.4-0.7-1.4-1.4 0-0.8 0.7-1.4 1.4-1.4 0.8 0 1.4 0.7 1.4 1.4C24.2 52.6 23.5 53.3 22.8 53.3zM39.2 13.6c1 1.3 1.9 2.6 2.7 4.1 -0.4 0-0.7-0.1-1.1-0.1 -0.5 0-1-0.1-1.6-0.1 -0.3 0-0.3-0.1-0.3-0.4 0.1-0.8 0.1-1.6 0.2-2.4C39.2 14.3 39.2 14 39.2 13.6zM38.3 13.6c-0.1 1.3-0.2 2.5-0.3 3.7 -0.3 0-0.7 0-1 0 -0.1 0-0.2-0.2-0.2-0.3 -0.2-0.9-0.4-1.9-0.5-2.8 0-0.1 0.1-0.2 0.2-0.3C37 13.8 37.6 13.7 38.3 13.6zM27.5 12.7c0.9 0.2 1.7 0.4 2.7 0.6 -1.1 1.2-2.1 2.3-3.1 3.4 0 0-0.1 0-0.1 0C27.2 15.3 27.3 14 27.5 12.7zM30.2 21c-0.9-0.8-1.8-1.5-2.7-2.3 1.1-0.1 2.2-0.1 3.3-0.2C30.6 19.3 30.4 20.1 30.2 21zM35.4 10c1 0.9 1.9 1.7 3 2.6 -0.9 0.2-1.6 0.3-2.4 0.5 -0.2-1-0.4-2-0.6-3C35.4 10 35.4 10 35.4 10zM24.2 47.2c0.4-1.2 0.9-2.4 1.3-3.6 0.4 0.5 0.8 1 1.2 1.4 0 0 0 0.2 0 0.2 -0.8 0.7-1.6 1.3-2.4 2C24.3 47.2 24.2 47.2 24.2 47.2zM26 17.2c-0.5-0.5-1-1-1.5-1.5 0.5 0 1 0 1.6 0 0.1 0 0.2 0.1 0.2 0.2C26.1 16.3 26 16.7 26 17.2zM31.5 19.6c0.2 0.5 0.5 1.1 0.7 1.7 -0.4 0-0.8 0-1.2 0 0.1-0.6 0.2-1.1 0.4-1.7C31.5 19.6 31.5 19.6 31.5 19.6zM32.9 22.8c0.1 0.3 0.2 0.5 0.4 0.8C32.8 23.4 32.7 23.2 32.9 22.8z"/><path fill="#FB9800" d="M76.5 19.7c-0.1 3.3-1.2 6.2-3.4 8.6s-4.9 3.8-8.1 4.1l-1.2 0.1 11.8 15.9h-5.3L55.9 29.2h4.2c3.7 0 6.7-1 8.9-2.9 2.2-1.9 3.2-4.4 3.1-7.3 -0.1-2.7-1.1-4.8-2.9-6.5 -2-1.8-4.6-2.7-7.8-2.7H51.8v38.7h-4.4V5.8h13.7c4.7 0 8.5 1.3 11.3 3.9C75.2 12.3 76.6 15.7 76.5 19.7zM103.8 48.5H91.6c-3.2 0-5.9-0.9-7.9-2.7 -2.1-1.8-3.1-4.4-3.1-7.8V16.3c0-3.4 1-6 3.1-7.8 2.1-1.8 4.7-2.7 7.9-2.7h12.3v4H91.5c-2.2 0-3.8 0.4-4.7 1.3 -1.4 1.5-2.1 3-2.1 4.4v9.2h14.3v4.1H84.7v9.9c0 1.5 0.7 3 2.1 4.4 0.9 0.9 2.5 1.3 4.7 1.3h12.3V48.5zM135.6 48.5h-5.2l-14.6-18.6 -5.5 7v11.6h-4.2V5.7h4.5v24.3l19.6-24.3h5.4l-16.9 20.8L135.6 48.5zM178.9 48.5h-4.8l-6.1-14.4h-19.8l-6 14.4H136.8l19.1-42.8h4.8L178.9 48.5zM166.5 30.2l-8.1-19.6 -8.3 19.6H166.5z"/></svg>